`                          888      888 888               888 888 
                           888      888 888               888 888 
                           888      888 888               888 888 
              .d88b.   .d88888  .d88888 88888b.   8888b.  888 888 
             d88""88b d88" 888 d88" 888 888 "88b     "88b 888 888 
             888  888 888  888 888  888 888  888 .d888888 888 888 
             Y88..88P Y88b 888 Y88b 888 888 d88P 888  888 888 888 
              "Y88P"   "Y88888  "Y88888 88888P"  "Y888888 888 888 
                                       -links.com 

The Haunting in Connecticut is a 2009 psychological supernatural horror film based on the allegedly true story of a paranormal event in Connecticut.

Screen Shots `
 
http://i724.photobucket.com/albums/ww246/oddball-links/Connecticut/5.jpg
 
http://i724.photobucket.com/albums/ww246/oddball-links/Connecticut/4.jpg
 
http://i724.photobucket.com/albums/ww246/oddball-links/Connecticut/3.jpg
 
http://i724.photobucket.com/albums/ww246/oddball-links/Connecticut/2.jpg
 
http://i724.photobucket.com/albums/ww246/oddball-links/Connecticut/1.jpg `                                                                                                                                     +-+-+-+-+
                                    |c|a|s|t|
                                    +-+-+-+-+
`                                                                                                                    Actor                              Role      

                   Virginia Madsen .................. Sara Campbell 
                   Kyle Gallner ..................... Matt Campbell 
                   Martin Donovan ................... Peter Campbell 
                   Amanda Crew ...................... Wendy 
                   Elias Koteas ..................... Reverend Nicholas Popescu 
                   Erik J. Berg ..................... Jonah Aickman 



General
Complete name                    : The Haunting In Connecticute
Format                           : AVI
Format/Info                      : Audio Video Interleave
File size                        : 722 MiB
Duration                         : 1h 38mn
Overall bit rate                 : 1 024 Kbps

Video
Format                           : MPEG-4 Visual
Format profile                   : Streaming Video@L1
Format settings, BVOP            : Yes
Format settings, QPel            : No
Format settings, GMC             : No warppoints
Format settings, Matrix          : Default
Muxing mode                      : Packed bitstream
Codec ID                         : XVID
Codec ID/Hint                    : XviD
Duration                         : 1h 38mn
Bit rate                         : 820 Kbps
Width                            : 1 024 pixels
Height                           : 582 pixels
Display aspect ratio             : 16/9
Frame rate                       : 29.970 fps
Resolution                       : 24 bits
Colorimetry                      : 4:2:0
Scan type                        : Progressive
Bits/(Pixel*Frame)               : 0.046
Stream size                      : 578 MiB (80%)
Writing library                  : XviD 1.1.0 (UTC 2005-11-22)

Audio
Format                           : MPEG Audio
Format version                   : Version 1
Format profile                   : Layer 3
Codec ID                         : 55
Codec ID/Hint                    : MP3
Duration                         : 1h 38mn
Bit rate mode                    : Constant
Bit rate                         : 192 Kbps
Channel(s)                       : 2 channels
Sampling rate                    : 44.1 KHz
Resolution                       : 16 bits
Video delay                      : 26ms
Stream size                      : 135 MiB (19%)
Alignment                        : Split accross interleaves
Interleave, duration             : 33 ms (1.00 video frame)
Title                            : Audio Stream `                                                                                                For more oddball torrents  http://thepiratebay.org/user/oddball-links `                                                                                                                Please seed after downloading `                                                                                                         :::===  :::===== :::===== :::====       :::= === :::====  :::====
        :::     :::      :::      :::  ===      :::===== :::  === :::====
         =====  ======   ======   ===  ===      ======== ===  ===   ===  
            === ===      ===      ===  ===      === ==== ===  ===   ===  
        ======  ======== ======== =======       ===  ===  ======    ===  
                                                                         
                  :::=====  :::====  :::===== :::===== :::==== 
                  :::       :::  === :::      :::      :::  ===
                  === ===== =======  ======   ======   ===  ===
                  ===   === === ===  ===      ===      ===  ===
                   =======  ===  === ======== ======== =======